<mxfile host="app.diagrams.net" modified="2023-11-07T20:02:33.456Z" agent="Mozilla/5.0 (Macintosh; Intel Mac OS X 10_15_7) AppleWebKit/537.36 (KHTML, like Gecko) Chrome/118.0.0.0 Safari/537.36" version="22.0.8" etag="v87QnvQVWSWnscSL8Bmr" type="github">
  <diagram name="Page-1" id="AbS6iDH8S9czarW2xMCA">
    <mxGraphModel>
      <root>
        <mxCell id="0" />
        <mxCell id="1" parent="0" />
      </root>
    </mxGraphModel>
  </diagram>
</mxfile>
